<mxfile host="app.diagrams.net" agent="Mozilla/5.0 (Windows NT 10.0; Win64; x64) AppleWebKit/537.36 (KHTML, like Gecko) Chrome/130.0.0.0 Safari/537.36" version="24.8.3">
  <diagram id="C5RBs43oDa-KdzZeNtuy" name="Page-1">
    <mxGraphModel dx="1194" dy="1821" grid="1" gridSize="10" guides="1" tooltips="1" connect="1" arrows="1" fold="1" page="1" pageScale="1" pageWidth="827" pageHeight="1169" math="0" shadow="0">
      <root>
        <mxCell id="WIyWlLk6GJQsqaUBKTNV-0" />
        <mxCell id="WIyWlLk6GJQsqaUBKTNV-1" parent="WIyWlLk6GJQsqaUBKTNV-0" />
        <mxCell id="zkfFHV4jXpPFQw0GAbJ--0" value="Event" style="swimlane;fontStyle=0;align=center;verticalAlign=top;childLayout=stackLayout;horizontal=1;startSize=26;horizontalStack=0;resizeParent=1;resizeLast=0;collapsible=1;marginBottom=0;rounded=0;shadow=0;strokeWidth=1;" parent="WIyWlLk6GJQsqaUBKTNV-1" vertex="1">
          <mxGeometry x="918" y="330" width="270" height="416" as="geometry">
            <mxRectangle x="230" y="140" width="160" height="26" as="alternateBounds" />
          </mxGeometry>
        </mxCell>
        <mxCell id="zkfFHV4jXpPFQw0GAbJ--1" value="-dateTime: date" style="text;align=left;verticalAlign=top;spacingLeft=4;spacingRight=4;overflow=hidden;rotatable=0;points=[[0,0.5],[1,0.5]];portConstraint=eastwest;rotation=0;" parent="zkfFHV4jXpPFQw0GAbJ--0" vertex="1">
          <mxGeometry y="26" width="270" height="20" as="geometry" />
        </mxCell>
        <mxCell id="zkfFHV4jXpPFQw0GAbJ--2" value="-description: String" style="text;align=left;verticalAlign=top;spacingLeft=4;spacingRight=4;overflow=hidden;rotatable=0;points=[[0,0.5],[1,0.5]];portConstraint=eastwest;rounded=0;shadow=0;html=0;" parent="zkfFHV4jXpPFQw0GAbJ--0" vertex="1">
          <mxGeometry y="46" width="270" height="20" as="geometry" />
        </mxCell>
        <mxCell id="zkfFHV4jXpPFQw0GAbJ--3" value="-QRCode: Image" style="text;align=left;verticalAlign=top;spacingLeft=4;spacingRight=4;overflow=hidden;rotatable=0;points=[[0,0.5],[1,0.5]];portConstraint=eastwest;rounded=0;shadow=0;html=0;" parent="zkfFHV4jXpPFQw0GAbJ--0" vertex="1">
          <mxGeometry y="66" width="270" height="20" as="geometry" />
        </mxCell>
        <mxCell id="EVhksR-xxD7aObuNKPsO-1" value="-applicantList: ApplicantList" style="text;align=left;verticalAlign=top;spacingLeft=4;spacingRight=4;overflow=hidden;rotatable=0;points=[[0,0.5],[1,0.5]];portConstraint=eastwest;rounded=0;shadow=0;html=0;rotation=0;" parent="zkfFHV4jXpPFQw0GAbJ--0" vertex="1">
          <mxGeometry y="86" width="270" height="20" as="geometry" />
        </mxCell>
        <mxCell id="EVhksR-xxD7aObuNKPsO-2" value="-facility: Facility" style="text;align=left;verticalAlign=top;spacingLeft=4;spacingRight=4;overflow=hidden;rotatable=0;points=[[0,0.5],[1,0.5]];portConstraint=eastwest;rounded=0;shadow=0;html=0;" parent="zkfFHV4jXpPFQw0GAbJ--0" vertex="1">
          <mxGeometry y="106" width="270" height="20" as="geometry" />
        </mxCell>
        <mxCell id="EVhksR-xxD7aObuNKPsO-3" value="-organizerId: String" style="text;align=left;verticalAlign=top;spacingLeft=4;spacingRight=4;overflow=hidden;rotatable=0;points=[[0,0.5],[1,0.5]];portConstraint=eastwest;rounded=0;shadow=0;html=0;" parent="zkfFHV4jXpPFQw0GAbJ--0" vertex="1">
          <mxGeometry y="126" width="270" height="20" as="geometry" />
        </mxCell>
        <mxCell id="zkfFHV4jXpPFQw0GAbJ--4" value="" style="line;html=1;strokeWidth=1;align=left;verticalAlign=middle;spacingTop=-1;spacingLeft=3;spacingRight=3;rotatable=0;labelPosition=right;points=[];portConstraint=eastwest;" parent="zkfFHV4jXpPFQw0GAbJ--0" vertex="1">
          <mxGeometry y="146" width="270" height="10" as="geometry" />
        </mxCell>
        <mxCell id="EVhksR-xxD7aObuNKPsO-249" value="+ &lt;&lt;create&gt;&gt; Event()" style="text;align=left;verticalAlign=top;spacingLeft=4;spacingRight=4;overflow=hidden;rotatable=0;points=[[0,0.5],[1,0.5]];portConstraint=eastwest;rotation=0;" parent="zkfFHV4jXpPFQw0GAbJ--0" vertex="1">
          <mxGeometry y="156" width="270" height="20" as="geometry" />
        </mxCell>
        <mxCell id="zkfFHV4jXpPFQw0GAbJ--5" value="+getDateTime(): Date" style="text;align=left;verticalAlign=top;spacingLeft=4;spacingRight=4;overflow=hidden;rotatable=0;points=[[0,0.5],[1,0.5]];portConstraint=eastwest;rotation=0;" parent="zkfFHV4jXpPFQw0GAbJ--0" vertex="1">
          <mxGeometry y="176" width="270" height="20" as="geometry" />
        </mxCell>
        <mxCell id="EVhksR-xxD7aObuNKPsO-4" value="+setDateTime(dateTime: Date)" style="text;align=left;verticalAlign=top;spacingLeft=4;spacingRight=4;overflow=hidden;rotatable=0;points=[[0,0.5],[1,0.5]];portConstraint=eastwest;rotation=0;" parent="zkfFHV4jXpPFQw0GAbJ--0" vertex="1">
          <mxGeometry y="196" width="270" height="20" as="geometry" />
        </mxCell>
        <mxCell id="EVhksR-xxD7aObuNKPsO-5" value="+getDescription(): String" style="text;align=left;verticalAlign=top;spacingLeft=4;spacingRight=4;overflow=hidden;rotatable=0;points=[[0,0.5],[1,0.5]];portConstraint=eastwest;rotation=0;" parent="zkfFHV4jXpPFQw0GAbJ--0" vertex="1">
          <mxGeometry y="216" width="270" height="20" as="geometry" />
        </mxCell>
        <mxCell id="EVhksR-xxD7aObuNKPsO-6" value="+setDescription(description: String)" style="text;align=left;verticalAlign=top;spacingLeft=4;spacingRight=4;overflow=hidden;rotatable=0;points=[[0,0.5],[1,0.5]];portConstraint=eastwest;rotation=0;" parent="zkfFHV4jXpPFQw0GAbJ--0" vertex="1">
          <mxGeometry y="236" width="270" height="20" as="geometry" />
        </mxCell>
        <mxCell id="EVhksR-xxD7aObuNKPsO-7" value="+getQRCode(): Image" style="text;align=left;verticalAlign=top;spacingLeft=4;spacingRight=4;overflow=hidden;rotatable=0;points=[[0,0.5],[1,0.5]];portConstraint=eastwest;rotation=0;" parent="zkfFHV4jXpPFQw0GAbJ--0" vertex="1">
          <mxGeometry y="256" width="270" height="20" as="geometry" />
        </mxCell>
        <mxCell id="EVhksR-xxD7aObuNKPsO-8" value="+setQRCode(QRCode: Image)" style="text;align=left;verticalAlign=top;spacingLeft=4;spacingRight=4;overflow=hidden;rotatable=0;points=[[0,0.5],[1,0.5]];portConstraint=eastwest;rotation=0;" parent="zkfFHV4jXpPFQw0GAbJ--0" vertex="1">
          <mxGeometry y="276" width="270" height="20" as="geometry" />
        </mxCell>
        <mxCell id="EVhksR-xxD7aObuNKPsO-9" value="+getApplicantList(): ApplicantList" style="text;align=left;verticalAlign=top;spacingLeft=4;spacingRight=4;overflow=hidden;rotatable=0;points=[[0,0.5],[1,0.5]];portConstraint=eastwest;rotation=0;" parent="zkfFHV4jXpPFQw0GAbJ--0" vertex="1">
          <mxGeometry y="296" width="270" height="20" as="geometry" />
        </mxCell>
        <mxCell id="EVhksR-xxD7aObuNKPsO-11" value="+setApplicantList(applicantList: ApplicantList)" style="text;align=left;verticalAlign=top;spacingLeft=4;spacingRight=4;overflow=hidden;rotatable=0;points=[[0,0.5],[1,0.5]];portConstraint=eastwest;rotation=0;" parent="zkfFHV4jXpPFQw0GAbJ--0" vertex="1">
          <mxGeometry y="316" width="270" height="20" as="geometry" />
        </mxCell>
        <mxCell id="EVhksR-xxD7aObuNKPsO-12" value="+getFacility(): Facility" style="text;align=left;verticalAlign=top;spacingLeft=4;spacingRight=4;overflow=hidden;rotatable=0;points=[[0,0.5],[1,0.5]];portConstraint=eastwest;rotation=0;" parent="zkfFHV4jXpPFQw0GAbJ--0" vertex="1">
          <mxGeometry y="336" width="270" height="20" as="geometry" />
        </mxCell>
        <mxCell id="EVhksR-xxD7aObuNKPsO-13" value="+setFacility(facility: Facility)" style="text;align=left;verticalAlign=top;spacingLeft=4;spacingRight=4;overflow=hidden;rotatable=0;points=[[0,0.5],[1,0.5]];portConstraint=eastwest;rotation=0;" parent="zkfFHV4jXpPFQw0GAbJ--0" vertex="1">
          <mxGeometry y="356" width="270" height="20" as="geometry" />
        </mxCell>
        <mxCell id="EVhksR-xxD7aObuNKPsO-14" value="+getOrganizerId(): String" style="text;align=left;verticalAlign=top;spacingLeft=4;spacingRight=4;overflow=hidden;rotatable=0;points=[[0,0.5],[1,0.5]];portConstraint=eastwest;rotation=0;" parent="zkfFHV4jXpPFQw0GAbJ--0" vertex="1">
          <mxGeometry y="376" width="270" height="20" as="geometry" />
        </mxCell>
        <mxCell id="EVhksR-xxD7aObuNKPsO-15" value="+setOrganizerId(organizerId: String)" style="text;align=left;verticalAlign=top;spacingLeft=4;spacingRight=4;overflow=hidden;rotatable=0;points=[[0,0.5],[1,0.5]];portConstraint=eastwest;rotation=0;" parent="zkfFHV4jXpPFQw0GAbJ--0" vertex="1">
          <mxGeometry y="396" width="270" height="20" as="geometry" />
        </mxCell>
        <mxCell id="EVhksR-xxD7aObuNKPsO-16" value="ApplicantList" style="swimlane;fontStyle=0;align=center;verticalAlign=top;childLayout=stackLayout;horizontal=1;startSize=26;horizontalStack=0;resizeParent=1;resizeLast=0;collapsible=1;marginBottom=0;rounded=0;shadow=0;strokeWidth=1;" parent="WIyWlLk6GJQsqaUBKTNV-1" vertex="1">
          <mxGeometry y="330" width="350" height="320" as="geometry">
            <mxRectangle x="230" y="140" width="160" height="26" as="alternateBounds" />
          </mxGeometry>
        </mxCell>
        <mxCell id="EVhksR-xxD7aObuNKPsO-17" value="-applicantIds: ArrayList&lt;String&gt;" style="text;align=left;verticalAlign=top;spacingLeft=4;spacingRight=4;overflow=hidden;rotatable=0;points=[[0,0.5],[1,0.5]];portConstraint=eastwest;rotation=0;" parent="EVhksR-xxD7aObuNKPsO-16" vertex="1">
          <mxGeometry y="26" width="350" height="20" as="geometry" />
        </mxCell>
        <mxCell id="EVhksR-xxD7aObuNKPsO-18" value="-limit: Integer" style="text;align=left;verticalAlign=top;spacingLeft=4;spacingRight=4;overflow=hidden;rotatable=0;points=[[0,0.5],[1,0.5]];portConstraint=eastwest;rounded=0;shadow=0;html=0;" parent="EVhksR-xxD7aObuNKPsO-16" vertex="1">
          <mxGeometry y="46" width="350" height="20" as="geometry" />
        </mxCell>
        <mxCell id="EVhksR-xxD7aObuNKPsO-23" value="" style="line;html=1;strokeWidth=1;align=left;verticalAlign=middle;spacingTop=-1;spacingLeft=3;spacingRight=3;rotatable=0;labelPosition=right;points=[];portConstraint=eastwest;" parent="EVhksR-xxD7aObuNKPsO-16" vertex="1">
          <mxGeometry y="66" width="350" height="10" as="geometry" />
        </mxCell>
        <mxCell id="EVhksR-xxD7aObuNKPsO-24" value="+ &lt;&lt;create&gt;&gt; ApplicantList()" style="text;align=left;verticalAlign=top;spacingLeft=4;spacingRight=4;overflow=hidden;rotatable=0;points=[[0,0.5],[1,0.5]];portConstraint=eastwest;rotation=0;" parent="EVhksR-xxD7aObuNKPsO-16" vertex="1">
          <mxGeometry y="76" width="350" height="20" as="geometry" />
        </mxCell>
        <mxCell id="EVhksR-xxD7aObuNKPsO-246" value="+getApplicantIds(): ArrayList&lt;String&gt;" style="text;align=left;verticalAlign=top;spacingLeft=4;spacingRight=4;overflow=hidden;rotatable=0;points=[[0,0.5],[1,0.5]];portConstraint=eastwest;rotation=0;" parent="EVhksR-xxD7aObuNKPsO-16" vertex="1">
          <mxGeometry y="96" width="350" height="20" as="geometry" />
        </mxCell>
        <mxCell id="EVhksR-xxD7aObuNKPsO-25" value="+getApplicants(readCallback: ReadCallback): ArrayList&lt;User&gt;" style="text;align=left;verticalAlign=top;spacingLeft=4;spacingRight=4;overflow=hidden;rotatable=0;points=[[0,0.5],[1,0.5]];portConstraint=eastwest;rotation=0;" parent="EVhksR-xxD7aObuNKPsO-16" vertex="1">
          <mxGeometry y="116" width="350" height="20" as="geometry" />
        </mxCell>
        <mxCell id="EVhksR-xxD7aObuNKPsO-26" value="+setApplicantIds(applicantIds: ArrayList&lt;String&gt;)" style="text;align=left;verticalAlign=top;spacingLeft=4;spacingRight=4;overflow=hidden;rotatable=0;points=[[0,0.5],[1,0.5]];portConstraint=eastwest;rotation=0;" parent="EVhksR-xxD7aObuNKPsO-16" vertex="1">
          <mxGeometry y="136" width="350" height="20" as="geometry" />
        </mxCell>
        <mxCell id="EVhksR-xxD7aObuNKPsO-27" value="+setApplicants(applicants: ArrayList&lt;User&gt;)" style="text;align=left;verticalAlign=top;spacingLeft=4;spacingRight=4;overflow=hidden;rotatable=0;points=[[0,0.5],[1,0.5]];portConstraint=eastwest;rotation=0;" parent="EVhksR-xxD7aObuNKPsO-16" vertex="1">
          <mxGeometry y="156" width="350" height="20" as="geometry" />
        </mxCell>
        <mxCell id="EVhksR-xxD7aObuNKPsO-28" value="+addUser(user: User)" style="text;align=left;verticalAlign=top;spacingLeft=4;spacingRight=4;overflow=hidden;rotatable=0;points=[[0,0.5],[1,0.5]];portConstraint=eastwest;rotation=0;" parent="EVhksR-xxD7aObuNKPsO-16" vertex="1">
          <mxGeometry y="176" width="350" height="20" as="geometry" />
        </mxCell>
        <mxCell id="EVhksR-xxD7aObuNKPsO-29" value="+addUser(userId: String)" style="text;align=left;verticalAlign=top;spacingLeft=4;spacingRight=4;overflow=hidden;rotatable=0;points=[[0,0.5],[1,0.5]];portConstraint=eastwest;rotation=0;" parent="EVhksR-xxD7aObuNKPsO-16" vertex="1">
          <mxGeometry y="196" width="350" height="20" as="geometry" />
        </mxCell>
        <mxCell id="EVhksR-xxD7aObuNKPsO-30" value="+removeUser(user: User)" style="text;align=left;verticalAlign=top;spacingLeft=4;spacingRight=4;overflow=hidden;rotatable=0;points=[[0,0.5],[1,0.5]];portConstraint=eastwest;rotation=0;" parent="EVhksR-xxD7aObuNKPsO-16" vertex="1">
          <mxGeometry y="216" width="350" height="20" as="geometry" />
        </mxCell>
        <mxCell id="EVhksR-xxD7aObuNKPsO-31" value="+removeUser(userId: String)" style="text;align=left;verticalAlign=top;spacingLeft=4;spacingRight=4;overflow=hidden;rotatable=0;points=[[0,0.5],[1,0.5]];portConstraint=eastwest;rotation=0;" parent="EVhksR-xxD7aObuNKPsO-16" vertex="1">
          <mxGeometry y="236" width="350" height="20" as="geometry" />
        </mxCell>
        <mxCell id="EVhksR-xxD7aObuNKPsO-32" value="+getLimit(): Integer" style="text;align=left;verticalAlign=top;spacingLeft=4;spacingRight=4;overflow=hidden;rotatable=0;points=[[0,0.5],[1,0.5]];portConstraint=eastwest;rotation=0;" parent="EVhksR-xxD7aObuNKPsO-16" vertex="1">
          <mxGeometry y="256" width="350" height="20" as="geometry" />
        </mxCell>
        <mxCell id="EVhksR-xxD7aObuNKPsO-33" value="+setLimit(limit: Integer)" style="text;align=left;verticalAlign=top;spacingLeft=4;spacingRight=4;overflow=hidden;rotatable=0;points=[[0,0.5],[1,0.5]];portConstraint=eastwest;rotation=0;" parent="EVhksR-xxD7aObuNKPsO-16" vertex="1">
          <mxGeometry y="276" width="350" height="20" as="geometry" />
        </mxCell>
        <mxCell id="EVhksR-xxD7aObuNKPsO-34" value="+drawApplicants(number: int): ArrayList&lt;String&gt;" style="text;align=left;verticalAlign=top;spacingLeft=4;spacingRight=4;overflow=hidden;rotatable=0;points=[[0,0.5],[1,0.5]];portConstraint=eastwest;rotation=0;" parent="EVhksR-xxD7aObuNKPsO-16" vertex="1">
          <mxGeometry y="296" width="350" height="20" as="geometry" />
        </mxCell>
        <mxCell id="EVhksR-xxD7aObuNKPsO-36" value="CRUD" style="swimlane;fontStyle=0;align=center;verticalAlign=top;childLayout=stackLayout;horizontal=1;startSize=26;horizontalStack=0;resizeParent=1;resizeLast=0;collapsible=1;marginBottom=0;rounded=0;shadow=0;strokeWidth=1;" parent="WIyWlLk6GJQsqaUBKTNV-1" vertex="1">
          <mxGeometry x="350" y="330" width="570" height="320" as="geometry">
            <mxRectangle x="230" y="140" width="160" height="26" as="alternateBounds" />
          </mxGeometry>
        </mxCell>
        <mxCell id="EVhksR-xxD7aObuNKPsO-37" value="-database: Database" style="text;align=left;verticalAlign=top;spacingLeft=4;spacingRight=4;overflow=hidden;rotatable=0;points=[[0,0.5],[1,0.5]];portConstraint=eastwest;rotation=0;" parent="EVhksR-xxD7aObuNKPsO-36" vertex="1">
          <mxGeometry y="26" width="570" height="20" as="geometry" />
        </mxCell>
        <mxCell id="EVhksR-xxD7aObuNKPsO-38" value="-colRef: CollectionReference" style="text;align=left;verticalAlign=top;spacingLeft=4;spacingRight=4;overflow=hidden;rotatable=0;points=[[0,0.5],[1,0.5]];portConstraint=eastwest;rounded=0;shadow=0;html=0;" parent="EVhksR-xxD7aObuNKPsO-36" vertex="1">
          <mxGeometry y="46" width="570" height="20" as="geometry" />
        </mxCell>
        <mxCell id="EVhksR-xxD7aObuNKPsO-39" value="-classType: Class&lt;T&gt;" style="text;align=left;verticalAlign=top;spacingLeft=4;spacingRight=4;overflow=hidden;rotatable=0;points=[[0,0.5],[1,0.5]];portConstraint=eastwest;rounded=0;shadow=0;html=0;" parent="EVhksR-xxD7aObuNKPsO-36" vertex="1">
          <mxGeometry y="66" width="570" height="20" as="geometry" />
        </mxCell>
        <mxCell id="EVhksR-xxD7aObuNKPsO-43" value="" style="line;html=1;strokeWidth=1;align=left;verticalAlign=middle;spacingTop=-1;spacingLeft=3;spacingRight=3;rotatable=0;labelPosition=right;points=[];portConstraint=eastwest;" parent="EVhksR-xxD7aObuNKPsO-36" vertex="1">
          <mxGeometry y="86" width="570" height="10" as="geometry" />
        </mxCell>
        <mxCell id="EVhksR-xxD7aObuNKPsO-247" value="+ &lt;&lt;create&gt;&gt; CRUD(model: Class&lt;T&gt;)" style="text;align=left;verticalAlign=top;spacingLeft=4;spacingRight=4;overflow=hidden;rotatable=0;points=[[0,0.5],[1,0.5]];portConstraint=eastwest;rotation=0;" parent="EVhksR-xxD7aObuNKPsO-36" vertex="1">
          <mxGeometry y="96" width="570" height="20" as="geometry" />
        </mxCell>
        <mxCell id="EVhksR-xxD7aObuNKPsO-44" value="+create(model: T, callback: CreateCallback&lt;T&gt;)" style="text;align=left;verticalAlign=top;spacingLeft=4;spacingRight=4;overflow=hidden;rotatable=0;points=[[0,0.5],[1,0.5]];portConstraint=eastwest;rotation=0;" parent="EVhksR-xxD7aObuNKPsO-36" vertex="1">
          <mxGeometry y="116" width="570" height="20" as="geometry" />
        </mxCell>
        <mxCell id="EVhksR-xxD7aObuNKPsO-45" value="+readStatic(id: String, callback: ReadCallback&lt;T&gt;)" style="text;align=left;verticalAlign=top;spacingLeft=4;spacingRight=4;overflow=hidden;rotatable=0;points=[[0,0.5],[1,0.5]];portConstraint=eastwest;rotation=0;" parent="EVhksR-xxD7aObuNKPsO-36" vertex="1">
          <mxGeometry y="136" width="570" height="20" as="geometry" />
        </mxCell>
        <mxCell id="7Pmp2TDPIbplRNiimCEF-27" value="+readLive(id: String, callback: ReadCallback&lt;T&gt;): ListenerRegistration " style="text;align=left;verticalAlign=top;spacingLeft=4;spacingRight=4;overflow=hidden;rotatable=0;points=[[0,0.5],[1,0.5]];portConstraint=eastwest;rotation=0;" vertex="1" parent="EVhksR-xxD7aObuNKPsO-36">
          <mxGeometry y="156" width="570" height="20" as="geometry" />
        </mxCell>
        <mxCell id="7Pmp2TDPIbplRNiimCEF-28" value="+readAllStatic(callback: ReadMultipleCallback&lt;T&gt;)" style="text;align=left;verticalAlign=top;spacingLeft=4;spacingRight=4;overflow=hidden;rotatable=0;points=[[0,0.5],[1,0.5]];portConstraint=eastwest;rotation=0;" vertex="1" parent="EVhksR-xxD7aObuNKPsO-36">
          <mxGeometry y="176" width="570" height="20" as="geometry" />
        </mxCell>
        <mxCell id="7Pmp2TDPIbplRNiimCEF-29" value="+readAllLive(callback: ReadMultipleCallback&lt;T&gt;): ListenerRegistration " style="text;align=left;verticalAlign=top;spacingLeft=4;spacingRight=4;overflow=hidden;rotatable=0;points=[[0,0.5],[1,0.5]];portConstraint=eastwest;rotation=0;" vertex="1" parent="EVhksR-xxD7aObuNKPsO-36">
          <mxGeometry y="196" width="570" height="20" as="geometry" />
        </mxCell>
        <mxCell id="7Pmp2TDPIbplRNiimCEF-30" value="+readQueryStatic(fields: Map&lt;String, String&gt;, callback: ReadMultipleCallback&lt;T&gt;)" style="text;align=left;verticalAlign=top;spacingLeft=4;spacingRight=4;overflow=hidden;rotatable=0;points=[[0,0.5],[1,0.5]];portConstraint=eastwest;rotation=0;" vertex="1" parent="EVhksR-xxD7aObuNKPsO-36">
          <mxGeometry y="216" width="570" height="20" as="geometry" />
        </mxCell>
        <mxCell id="7Pmp2TDPIbplRNiimCEF-31" value="+readQueryLive(fields: Map&lt;String, String&gt;, callback: ReadMultipleCallback&lt;T&gt;): ListenerRegistration " style="text;align=left;verticalAlign=top;spacingLeft=4;spacingRight=4;overflow=hidden;rotatable=0;points=[[0,0.5],[1,0.5]];portConstraint=eastwest;rotation=0;" vertex="1" parent="EVhksR-xxD7aObuNKPsO-36">
          <mxGeometry y="236" width="570" height="20" as="geometry" />
        </mxCell>
        <mxCell id="7Pmp2TDPIbplRNiimCEF-32" value="+update(id: String, callback: UpdateCallback&lt;T&gt;)" style="text;align=left;verticalAlign=top;spacingLeft=4;spacingRight=4;overflow=hidden;rotatable=0;points=[[0,0.5],[1,0.5]];portConstraint=eastwest;rotation=0;" vertex="1" parent="EVhksR-xxD7aObuNKPsO-36">
          <mxGeometry y="256" width="570" height="20" as="geometry" />
        </mxCell>
        <mxCell id="7Pmp2TDPIbplRNiimCEF-33" value="+delete(id: String, callback: DeleteCallback&lt;T&gt;)" style="text;align=left;verticalAlign=top;spacingLeft=4;spacingRight=4;overflow=hidden;rotatable=0;points=[[0,0.5],[1,0.5]];portConstraint=eastwest;rotation=0;" vertex="1" parent="EVhksR-xxD7aObuNKPsO-36">
          <mxGeometry y="276" width="570" height="20" as="geometry" />
        </mxCell>
        <mxCell id="EVhksR-xxD7aObuNKPsO-56" value="Database" style="swimlane;fontStyle=0;align=center;verticalAlign=top;childLayout=stackLayout;horizontal=1;startSize=26;horizontalStack=0;resizeParent=1;resizeLast=0;collapsible=1;marginBottom=0;rounded=0;shadow=0;strokeWidth=1;" parent="WIyWlLk6GJQsqaUBKTNV-1" vertex="1">
          <mxGeometry x="600" y="-10" width="160" height="96" as="geometry">
            <mxRectangle x="230" y="140" width="160" height="26" as="alternateBounds" />
          </mxGeometry>
        </mxCell>
        <mxCell id="EVhksR-xxD7aObuNKPsO-57" value="-db: FirebaseFirestore" style="text;align=left;verticalAlign=top;spacingLeft=4;spacingRight=4;overflow=hidden;rotatable=0;points=[[0,0.5],[1,0.5]];portConstraint=eastwest;rotation=0;" parent="EVhksR-xxD7aObuNKPsO-56" vertex="1">
          <mxGeometry y="26" width="160" height="20" as="geometry" />
        </mxCell>
        <mxCell id="EVhksR-xxD7aObuNKPsO-63" value="" style="line;html=1;strokeWidth=1;align=left;verticalAlign=middle;spacingTop=-1;spacingLeft=3;spacingRight=3;rotatable=0;labelPosition=right;points=[];portConstraint=eastwest;" parent="EVhksR-xxD7aObuNKPsO-56" vertex="1">
          <mxGeometry y="46" width="160" height="10" as="geometry" />
        </mxCell>
        <mxCell id="EVhksR-xxD7aObuNKPsO-248" value="+ &lt;&lt;create&gt;&gt; Database()" style="text;align=left;verticalAlign=top;spacingLeft=4;spacingRight=4;overflow=hidden;rotatable=0;points=[[0,0.5],[1,0.5]];portConstraint=eastwest;rotation=0;" parent="EVhksR-xxD7aObuNKPsO-56" vertex="1">
          <mxGeometry y="56" width="160" height="20" as="geometry" />
        </mxCell>
        <mxCell id="EVhksR-xxD7aObuNKPsO-64" value="+getDb(): FirebaseFirestore" style="text;align=left;verticalAlign=top;spacingLeft=4;spacingRight=4;overflow=hidden;rotatable=0;points=[[0,0.5],[1,0.5]];portConstraint=eastwest;rotation=0;" parent="EVhksR-xxD7aObuNKPsO-56" vertex="1">
          <mxGeometry y="76" width="160" height="20" as="geometry" />
        </mxCell>
        <mxCell id="EVhksR-xxD7aObuNKPsO-76" value="EventList" style="swimlane;fontStyle=0;align=center;verticalAlign=top;childLayout=stackLayout;horizontal=1;startSize=26;horizontalStack=0;resizeParent=1;resizeLast=0;collapsible=1;marginBottom=0;rounded=0;shadow=0;strokeWidth=1;" parent="WIyWlLk6GJQsqaUBKTNV-1" vertex="1">
          <mxGeometry x="1188" y="330" width="330" height="236" as="geometry">
            <mxRectangle x="230" y="140" width="160" height="26" as="alternateBounds" />
          </mxGeometry>
        </mxCell>
        <mxCell id="EVhksR-xxD7aObuNKPsO-77" value="-eventIds: ArrayList&lt;String&gt;" style="text;align=left;verticalAlign=top;spacingLeft=4;spacingRight=4;overflow=hidden;rotatable=0;points=[[0,0.5],[1,0.5]];portConstraint=eastwest;rotation=0;" parent="EVhksR-xxD7aObuNKPsO-76" vertex="1">
          <mxGeometry y="26" width="330" height="20" as="geometry" />
        </mxCell>
        <mxCell id="EVhksR-xxD7aObuNKPsO-83" value="" style="line;html=1;strokeWidth=1;align=left;verticalAlign=middle;spacingTop=-1;spacingLeft=3;spacingRight=3;rotatable=0;labelPosition=right;points=[];portConstraint=eastwest;" parent="EVhksR-xxD7aObuNKPsO-76" vertex="1">
          <mxGeometry y="46" width="330" height="10" as="geometry" />
        </mxCell>
        <mxCell id="EVhksR-xxD7aObuNKPsO-250" value="+ &lt;&lt;create&gt;&gt; EventList()" style="text;align=left;verticalAlign=top;spacingLeft=4;spacingRight=4;overflow=hidden;rotatable=0;points=[[0,0.5],[1,0.5]];portConstraint=eastwest;rotation=0;" parent="EVhksR-xxD7aObuNKPsO-76" vertex="1">
          <mxGeometry y="56" width="330" height="20" as="geometry" />
        </mxCell>
        <mxCell id="EVhksR-xxD7aObuNKPsO-84" value="+getEventds(): ArrayList&lt;String&gt; " style="text;align=left;verticalAlign=top;spacingLeft=4;spacingRight=4;overflow=hidden;rotatable=0;points=[[0,0.5],[1,0.5]];portConstraint=eastwest;rotation=0;" parent="EVhksR-xxD7aObuNKPsO-76" vertex="1">
          <mxGeometry y="76" width="330" height="20" as="geometry" />
        </mxCell>
        <mxCell id="EVhksR-xxD7aObuNKPsO-85" value="+getEvent(readCallback: ReadCallback): ArrayList&lt;Event&gt;" style="text;align=left;verticalAlign=top;spacingLeft=4;spacingRight=4;overflow=hidden;rotatable=0;points=[[0,0.5],[1,0.5]];portConstraint=eastwest;rotation=0;" parent="EVhksR-xxD7aObuNKPsO-76" vertex="1">
          <mxGeometry y="96" width="330" height="20" as="geometry" />
        </mxCell>
        <mxCell id="EVhksR-xxD7aObuNKPsO-86" value="+setEventIds(eventIds: ArrayList&lt;String&gt;)" style="text;align=left;verticalAlign=top;spacingLeft=4;spacingRight=4;overflow=hidden;rotatable=0;points=[[0,0.5],[1,0.5]];portConstraint=eastwest;rotation=0;" parent="EVhksR-xxD7aObuNKPsO-76" vertex="1">
          <mxGeometry y="116" width="330" height="20" as="geometry" />
        </mxCell>
        <mxCell id="EVhksR-xxD7aObuNKPsO-87" value="+addEvent(event: Event)" style="text;align=left;verticalAlign=top;spacingLeft=4;spacingRight=4;overflow=hidden;rotatable=0;points=[[0,0.5],[1,0.5]];portConstraint=eastwest;rotation=0;" parent="EVhksR-xxD7aObuNKPsO-76" vertex="1">
          <mxGeometry y="136" width="330" height="20" as="geometry" />
        </mxCell>
        <mxCell id="EVhksR-xxD7aObuNKPsO-88" value="+addEvent(eventId: String)" style="text;align=left;verticalAlign=top;spacingLeft=4;spacingRight=4;overflow=hidden;rotatable=0;points=[[0,0.5],[1,0.5]];portConstraint=eastwest;rotation=0;" parent="EVhksR-xxD7aObuNKPsO-76" vertex="1">
          <mxGeometry y="156" width="330" height="20" as="geometry" />
        </mxCell>
        <mxCell id="EVhksR-xxD7aObuNKPsO-89" value="+removeEvent(event: Event)" style="text;align=left;verticalAlign=top;spacingLeft=4;spacingRight=4;overflow=hidden;rotatable=0;points=[[0,0.5],[1,0.5]];portConstraint=eastwest;rotation=0;" parent="EVhksR-xxD7aObuNKPsO-76" vertex="1">
          <mxGeometry y="176" width="330" height="20" as="geometry" />
        </mxCell>
        <mxCell id="EVhksR-xxD7aObuNKPsO-90" value="+removeEvent(eventId: String)" style="text;align=left;verticalAlign=top;spacingLeft=4;spacingRight=4;overflow=hidden;rotatable=0;points=[[0,0.5],[1,0.5]];portConstraint=eastwest;rotation=0;" parent="EVhksR-xxD7aObuNKPsO-76" vertex="1">
          <mxGeometry y="196" width="330" height="20" as="geometry" />
        </mxCell>
        <mxCell id="EVhksR-xxD7aObuNKPsO-91" value="+setEvents(events:ArrayList&lt;Event&gt;)" style="text;align=left;verticalAlign=top;spacingLeft=4;spacingRight=4;overflow=hidden;rotatable=0;points=[[0,0.5],[1,0.5]];portConstraint=eastwest;rotation=0;" parent="EVhksR-xxD7aObuNKPsO-76" vertex="1">
          <mxGeometry y="216" width="330" height="20" as="geometry" />
        </mxCell>
        <mxCell id="EVhksR-xxD7aObuNKPsO-96" value="Facility" style="swimlane;fontStyle=0;align=center;verticalAlign=top;childLayout=stackLayout;horizontal=1;startSize=26;horizontalStack=0;resizeParent=1;resizeLast=0;collapsible=1;marginBottom=0;rounded=0;shadow=0;strokeWidth=1;" parent="WIyWlLk6GJQsqaUBKTNV-1" vertex="1">
          <mxGeometry x="1788" y="330" width="130" height="80" as="geometry">
            <mxRectangle x="230" y="140" width="160" height="26" as="alternateBounds" />
          </mxGeometry>
        </mxCell>
        <mxCell id="EVhksR-xxD7aObuNKPsO-97" value="&lt;empty&gt;" style="text;align=left;verticalAlign=top;spacingLeft=4;spacingRight=4;overflow=hidden;rotatable=0;points=[[0,0.5],[1,0.5]];portConstraint=eastwest;rotation=0;" parent="EVhksR-xxD7aObuNKPsO-96" vertex="1">
          <mxGeometry y="26" width="130" height="20" as="geometry" />
        </mxCell>
        <mxCell id="EVhksR-xxD7aObuNKPsO-103" value="" style="line;html=1;strokeWidth=1;align=left;verticalAlign=middle;spacingTop=-1;spacingLeft=3;spacingRight=3;rotatable=0;labelPosition=right;points=[];portConstraint=eastwest;" parent="EVhksR-xxD7aObuNKPsO-96" vertex="1">
          <mxGeometry y="46" width="130" height="10" as="geometry" />
        </mxCell>
        <mxCell id="EVhksR-xxD7aObuNKPsO-113" value="+ &lt;&lt;create&gt;&gt; Facility()" style="text;align=left;verticalAlign=top;spacingLeft=4;spacingRight=4;overflow=hidden;rotatable=0;points=[[0,0.5],[1,0.5]];portConstraint=eastwest;rotation=0;" parent="EVhksR-xxD7aObuNKPsO-96" vertex="1">
          <mxGeometry y="56" width="130" height="20" as="geometry" />
        </mxCell>
        <mxCell id="EVhksR-xxD7aObuNKPsO-136" value="LotterySystem" style="swimlane;fontStyle=0;align=center;verticalAlign=top;childLayout=stackLayout;horizontal=1;startSize=26;horizontalStack=0;resizeParent=1;resizeLast=0;collapsible=1;marginBottom=0;rounded=0;shadow=0;strokeWidth=1;" parent="WIyWlLk6GJQsqaUBKTNV-1" vertex="1">
          <mxGeometry x="780" y="-10" width="100" height="80" as="geometry">
            <mxRectangle x="230" y="140" width="160" height="26" as="alternateBounds" />
          </mxGeometry>
        </mxCell>
        <mxCell id="EVhksR-xxD7aObuNKPsO-137" value="&lt;empty&gt;" style="text;align=left;verticalAlign=top;spacingLeft=4;spacingRight=4;overflow=hidden;rotatable=0;points=[[0,0.5],[1,0.5]];portConstraint=eastwest;rotation=0;" parent="EVhksR-xxD7aObuNKPsO-136" vertex="1">
          <mxGeometry y="26" width="100" height="20" as="geometry" />
        </mxCell>
        <mxCell id="EVhksR-xxD7aObuNKPsO-138" value="" style="line;html=1;strokeWidth=1;align=left;verticalAlign=middle;spacingTop=-1;spacingLeft=3;spacingRight=3;rotatable=0;labelPosition=right;points=[];portConstraint=eastwest;" parent="EVhksR-xxD7aObuNKPsO-136" vertex="1">
          <mxGeometry y="46" width="100" height="10" as="geometry" />
        </mxCell>
        <mxCell id="EVhksR-xxD7aObuNKPsO-139" value="&lt;empty&gt;" style="text;align=left;verticalAlign=top;spacingLeft=4;spacingRight=4;overflow=hidden;rotatable=0;points=[[0,0.5],[1,0.5]];portConstraint=eastwest;rotation=0;" parent="EVhksR-xxD7aObuNKPsO-136" vertex="1">
          <mxGeometry y="56" width="100" height="20" as="geometry" />
        </mxCell>
        <mxCell id="EVhksR-xxD7aObuNKPsO-140" value="&lt;&lt;Interface&gt;&gt;&#xa;UpdateCallback" style="swimlane;fontStyle=0;align=center;verticalAlign=top;childLayout=stackLayout;horizontal=1;startSize=40;horizontalStack=0;resizeParent=1;resizeLast=0;collapsible=1;marginBottom=0;rounded=0;shadow=0;strokeWidth=1;" parent="WIyWlLk6GJQsqaUBKTNV-1" vertex="1">
          <mxGeometry x="890" y="-12" width="270" height="112" as="geometry">
            <mxRectangle x="230" y="140" width="160" height="26" as="alternateBounds" />
          </mxGeometry>
        </mxCell>
        <mxCell id="EVhksR-xxD7aObuNKPsO-142" value="&lt;empty&gt;" style="text;align=left;verticalAlign=top;spacingLeft=4;spacingRight=4;overflow=hidden;rotatable=0;points=[[0,0.5],[1,0.5]];portConstraint=eastwest;rounded=0;shadow=0;html=0;" parent="EVhksR-xxD7aObuNKPsO-140" vertex="1">
          <mxGeometry y="40" width="270" height="20" as="geometry" />
        </mxCell>
        <mxCell id="EVhksR-xxD7aObuNKPsO-147" value="" style="line;html=1;strokeWidth=1;align=left;verticalAlign=middle;spacingTop=-1;spacingLeft=3;spacingRight=3;rotatable=0;labelPosition=right;points=[];portConstraint=eastwest;" parent="EVhksR-xxD7aObuNKPsO-140" vertex="1">
          <mxGeometry y="60" width="270" height="10" as="geometry" />
        </mxCell>
        <mxCell id="EVhksR-xxD7aObuNKPsO-148" value="+onUpdateSuccess()" style="text;align=left;verticalAlign=top;spacingLeft=4;spacingRight=4;overflow=hidden;rotatable=0;points=[[0,0.5],[1,0.5]];portConstraint=eastwest;rotation=0;" parent="EVhksR-xxD7aObuNKPsO-140" vertex="1">
          <mxGeometry y="70" width="270" height="20" as="geometry" />
        </mxCell>
        <mxCell id="7Pmp2TDPIbplRNiimCEF-6" value="+onUpdateFailure(Exception e)" style="text;align=left;verticalAlign=top;spacingLeft=4;spacingRight=4;overflow=hidden;rotatable=0;points=[[0,0.5],[1,0.5]];portConstraint=eastwest;rotation=0;" vertex="1" parent="EVhksR-xxD7aObuNKPsO-140">
          <mxGeometry y="90" width="270" height="20" as="geometry" />
        </mxCell>
        <mxCell id="EVhksR-xxD7aObuNKPsO-160" value="RepoModel" style="swimlane;fontStyle=2;align=center;verticalAlign=top;childLayout=stackLayout;horizontal=1;startSize=26;horizontalStack=0;resizeParent=1;resizeLast=0;collapsible=1;marginBottom=0;rounded=0;shadow=0;strokeWidth=1;" parent="WIyWlLk6GJQsqaUBKTNV-1" vertex="1">
          <mxGeometry x="430" y="-10" width="110" height="100" as="geometry">
            <mxRectangle x="230" y="140" width="160" height="26" as="alternateBounds" />
          </mxGeometry>
        </mxCell>
        <mxCell id="EVhksR-xxD7aObuNKPsO-161" value="-id: String" style="text;align=left;verticalAlign=top;spacingLeft=4;spacingRight=4;overflow=hidden;rotatable=0;points=[[0,0.5],[1,0.5]];portConstraint=eastwest;rotation=0;" parent="EVhksR-xxD7aObuNKPsO-160" vertex="1">
          <mxGeometry y="26" width="110" height="20" as="geometry" />
        </mxCell>
        <mxCell id="EVhksR-xxD7aObuNKPsO-167" value="" style="line;html=1;strokeWidth=1;align=left;verticalAlign=middle;spacingTop=-1;spacingLeft=3;spacingRight=3;rotatable=0;labelPosition=right;points=[];portConstraint=eastwest;" parent="EVhksR-xxD7aObuNKPsO-160" vertex="1">
          <mxGeometry y="46" width="110" height="10" as="geometry" />
        </mxCell>
        <mxCell id="EVhksR-xxD7aObuNKPsO-168" value="+getId(): String" style="text;align=left;verticalAlign=top;spacingLeft=4;spacingRight=4;overflow=hidden;rotatable=0;points=[[0,0.5],[1,0.5]];portConstraint=eastwest;rotation=0;" parent="EVhksR-xxD7aObuNKPsO-160" vertex="1">
          <mxGeometry y="56" width="110" height="20" as="geometry" />
        </mxCell>
        <mxCell id="EVhksR-xxD7aObuNKPsO-169" value="+setId(id: String)" style="text;align=left;verticalAlign=top;spacingLeft=4;spacingRight=4;overflow=hidden;rotatable=0;points=[[0,0.5],[1,0.5]];portConstraint=eastwest;rotation=0;" parent="EVhksR-xxD7aObuNKPsO-160" vertex="1">
          <mxGeometry y="76" width="110" height="20" as="geometry" />
        </mxCell>
        <mxCell id="EVhksR-xxD7aObuNKPsO-200" value="&lt;&lt;enumeration&gt;&gt;&#xa;Role" style="swimlane;fontStyle=0;align=center;verticalAlign=top;childLayout=stackLayout;horizontal=1;startSize=40;horizontalStack=0;resizeParent=1;resizeLast=0;collapsible=1;marginBottom=0;rounded=0;shadow=0;strokeWidth=1;" parent="WIyWlLk6GJQsqaUBKTNV-1" vertex="1">
          <mxGeometry x="1938" y="440" width="130" height="110" as="geometry">
            <mxRectangle x="230" y="140" width="160" height="26" as="alternateBounds" />
          </mxGeometry>
        </mxCell>
        <mxCell id="EVhksR-xxD7aObuNKPsO-201" value="ENTRANT" style="text;align=left;verticalAlign=top;spacingLeft=4;spacingRight=4;overflow=hidden;rotatable=0;points=[[0,0.5],[1,0.5]];portConstraint=eastwest;rounded=0;shadow=0;html=0;" parent="EVhksR-xxD7aObuNKPsO-200" vertex="1">
          <mxGeometry y="40" width="130" height="20" as="geometry" />
        </mxCell>
        <mxCell id="EVhksR-xxD7aObuNKPsO-204" value="ORGANIZER" style="text;align=left;verticalAlign=top;spacingLeft=4;spacingRight=4;overflow=hidden;rotatable=0;points=[[0,0.5],[1,0.5]];portConstraint=eastwest;rounded=0;shadow=0;html=0;" parent="EVhksR-xxD7aObuNKPsO-200" vertex="1">
          <mxGeometry y="60" width="130" height="20" as="geometry" />
        </mxCell>
        <mxCell id="EVhksR-xxD7aObuNKPsO-205" value="ADMIN" style="text;align=left;verticalAlign=top;spacingLeft=4;spacingRight=4;overflow=hidden;rotatable=0;points=[[0,0.5],[1,0.5]];portConstraint=eastwest;rounded=0;shadow=0;html=0;" parent="EVhksR-xxD7aObuNKPsO-200" vertex="1">
          <mxGeometry y="80" width="130" height="20" as="geometry" />
        </mxCell>
        <mxCell id="EVhksR-xxD7aObuNKPsO-206" value="User" style="swimlane;fontStyle=0;align=center;verticalAlign=top;childLayout=stackLayout;horizontal=1;startSize=26;horizontalStack=0;resizeParent=1;resizeLast=0;collapsible=1;marginBottom=0;rounded=0;shadow=0;strokeWidth=1;" parent="WIyWlLk6GJQsqaUBKTNV-1" vertex="1">
          <mxGeometry x="1518" y="330" width="270" height="296" as="geometry">
            <mxRectangle x="230" y="140" width="160" height="26" as="alternateBounds" />
          </mxGeometry>
        </mxCell>
        <mxCell id="EVhksR-xxD7aObuNKPsO-207" value="-deviceId: String" style="text;align=left;verticalAlign=top;spacingLeft=4;spacingRight=4;overflow=hidden;rotatable=0;points=[[0,0.5],[1,0.5]];portConstraint=eastwest;rotation=0;" parent="EVhksR-xxD7aObuNKPsO-206" vertex="1">
          <mxGeometry y="26" width="270" height="20" as="geometry" />
        </mxCell>
        <mxCell id="EVhksR-xxD7aObuNKPsO-208" value="-roles: ArrayList&lt;Role&gt;" style="text;align=left;verticalAlign=top;spacingLeft=4;spacingRight=4;overflow=hidden;rotatable=0;points=[[0,0.5],[1,0.5]];portConstraint=eastwest;rounded=0;shadow=0;html=0;" parent="EVhksR-xxD7aObuNKPsO-206" vertex="1">
          <mxGeometry y="46" width="270" height="20" as="geometry" />
        </mxCell>
        <mxCell id="EVhksR-xxD7aObuNKPsO-209" value="-userProfile: UserProfile" style="text;align=left;verticalAlign=top;spacingLeft=4;spacingRight=4;overflow=hidden;rotatable=0;points=[[0,0.5],[1,0.5]];portConstraint=eastwest;rounded=0;shadow=0;html=0;" parent="EVhksR-xxD7aObuNKPsO-206" vertex="1">
          <mxGeometry y="66" width="270" height="20" as="geometry" />
        </mxCell>
        <mxCell id="EVhksR-xxD7aObuNKPsO-213" value="" style="line;html=1;strokeWidth=1;align=left;verticalAlign=middle;spacingTop=-1;spacingLeft=3;spacingRight=3;rotatable=0;labelPosition=right;points=[];portConstraint=eastwest;" parent="EVhksR-xxD7aObuNKPsO-206" vertex="1">
          <mxGeometry y="86" width="270" height="10" as="geometry" />
        </mxCell>
        <mxCell id="EVhksR-xxD7aObuNKPsO-252" value="+ &lt;&lt;create&gt;&gt; User()" style="text;align=left;verticalAlign=top;spacingLeft=4;spacingRight=4;overflow=hidden;rotatable=0;points=[[0,0.5],[1,0.5]];portConstraint=eastwest;rotation=0;" parent="EVhksR-xxD7aObuNKPsO-206" vertex="1">
          <mxGeometry y="96" width="270" height="20" as="geometry" />
        </mxCell>
        <mxCell id="EVhksR-xxD7aObuNKPsO-214" value="+ &lt;&lt;create&gt;&gt; User(deviceId: String)" style="text;align=left;verticalAlign=top;spacingLeft=4;spacingRight=4;overflow=hidden;rotatable=0;points=[[0,0.5],[1,0.5]];portConstraint=eastwest;rotation=0;" parent="EVhksR-xxD7aObuNKPsO-206" vertex="1">
          <mxGeometry y="116" width="270" height="20" as="geometry" />
        </mxCell>
        <mxCell id="EVhksR-xxD7aObuNKPsO-251" value="+getDeviceId(): String" style="text;align=left;verticalAlign=top;spacingLeft=4;spacingRight=4;overflow=hidden;rotatable=0;points=[[0,0.5],[1,0.5]];portConstraint=eastwest;rotation=0;" parent="EVhksR-xxD7aObuNKPsO-206" vertex="1">
          <mxGeometry y="136" width="270" height="20" as="geometry" />
        </mxCell>
        <mxCell id="EVhksR-xxD7aObuNKPsO-215" value="+setDeviceId(deviceId: String)" style="text;align=left;verticalAlign=top;spacingLeft=4;spacingRight=4;overflow=hidden;rotatable=0;points=[[0,0.5],[1,0.5]];portConstraint=eastwest;rotation=0;" parent="EVhksR-xxD7aObuNKPsO-206" vertex="1">
          <mxGeometry y="156" width="270" height="20" as="geometry" />
        </mxCell>
        <mxCell id="EVhksR-xxD7aObuNKPsO-216" value="+addRole(role: Role)" style="text;align=left;verticalAlign=top;spacingLeft=4;spacingRight=4;overflow=hidden;rotatable=0;points=[[0,0.5],[1,0.5]];portConstraint=eastwest;rotation=0;" parent="EVhksR-xxD7aObuNKPsO-206" vertex="1">
          <mxGeometry y="176" width="270" height="20" as="geometry" />
        </mxCell>
        <mxCell id="EVhksR-xxD7aObuNKPsO-217" value="+removeRole(role: Role)" style="text;align=left;verticalAlign=top;spacingLeft=4;spacingRight=4;overflow=hidden;rotatable=0;points=[[0,0.5],[1,0.5]];portConstraint=eastwest;rotation=0;" parent="EVhksR-xxD7aObuNKPsO-206" vertex="1">
          <mxGeometry y="196" width="270" height="20" as="geometry" />
        </mxCell>
        <mxCell id="EVhksR-xxD7aObuNKPsO-218" value="+getRoles(): ArrayList&lt;Role&gt;" style="text;align=left;verticalAlign=top;spacingLeft=4;spacingRight=4;overflow=hidden;rotatable=0;points=[[0,0.5],[1,0.5]];portConstraint=eastwest;rotation=0;" parent="EVhksR-xxD7aObuNKPsO-206" vertex="1">
          <mxGeometry y="216" width="270" height="20" as="geometry" />
        </mxCell>
        <mxCell id="EVhksR-xxD7aObuNKPsO-219" value="+setRoles(roles: ArrayList&lt;Role&gt;)" style="text;align=left;verticalAlign=top;spacingLeft=4;spacingRight=4;overflow=hidden;rotatable=0;points=[[0,0.5],[1,0.5]];portConstraint=eastwest;rotation=0;" parent="EVhksR-xxD7aObuNKPsO-206" vertex="1">
          <mxGeometry y="236" width="270" height="20" as="geometry" />
        </mxCell>
        <mxCell id="EVhksR-xxD7aObuNKPsO-220" value="+getUserProfile(): UserProfile" style="text;align=left;verticalAlign=top;spacingLeft=4;spacingRight=4;overflow=hidden;rotatable=0;points=[[0,0.5],[1,0.5]];portConstraint=eastwest;rotation=0;" parent="EVhksR-xxD7aObuNKPsO-206" vertex="1">
          <mxGeometry y="256" width="270" height="20" as="geometry" />
        </mxCell>
        <mxCell id="EVhksR-xxD7aObuNKPsO-221" value="+setUserProfile(userProfile: UserProfile)" style="text;align=left;verticalAlign=top;spacingLeft=4;spacingRight=4;overflow=hidden;rotatable=0;points=[[0,0.5],[1,0.5]];portConstraint=eastwest;rotation=0;" parent="EVhksR-xxD7aObuNKPsO-206" vertex="1">
          <mxGeometry y="276" width="270" height="20" as="geometry" />
        </mxCell>
        <mxCell id="EVhksR-xxD7aObuNKPsO-226" value="UserProfile" style="swimlane;fontStyle=0;align=center;verticalAlign=top;childLayout=stackLayout;horizontal=1;startSize=26;horizontalStack=0;resizeParent=1;resizeLast=0;collapsible=1;marginBottom=0;rounded=0;shadow=0;strokeWidth=1;" parent="WIyWlLk6GJQsqaUBKTNV-1" vertex="1">
          <mxGeometry x="750" y="-360" width="270" height="300" as="geometry">
            <mxRectangle x="230" y="140" width="160" height="26" as="alternateBounds" />
          </mxGeometry>
        </mxCell>
        <mxCell id="EVhksR-xxD7aObuNKPsO-227" value="-userName: String" style="text;align=left;verticalAlign=top;spacingLeft=4;spacingRight=4;overflow=hidden;rotatable=0;points=[[0,0.5],[1,0.5]];portConstraint=eastwest;rotation=0;" parent="EVhksR-xxD7aObuNKPsO-226" vertex="1">
          <mxGeometry y="26" width="270" height="20" as="geometry" />
        </mxCell>
        <mxCell id="EVhksR-xxD7aObuNKPsO-228" value="-profilePicture: Image" style="text;align=left;verticalAlign=top;spacingLeft=4;spacingRight=4;overflow=hidden;rotatable=0;points=[[0,0.5],[1,0.5]];portConstraint=eastwest;rounded=0;shadow=0;html=0;" parent="EVhksR-xxD7aObuNKPsO-226" vertex="1">
          <mxGeometry y="46" width="270" height="20" as="geometry" />
        </mxCell>
        <mxCell id="EVhksR-xxD7aObuNKPsO-229" value="-email: String" style="text;align=left;verticalAlign=top;spacingLeft=4;spacingRight=4;overflow=hidden;rotatable=0;points=[[0,0.5],[1,0.5]];portConstraint=eastwest;rounded=0;shadow=0;html=0;" parent="EVhksR-xxD7aObuNKPsO-226" vertex="1">
          <mxGeometry y="66" width="270" height="20" as="geometry" />
        </mxCell>
        <mxCell id="EVhksR-xxD7aObuNKPsO-230" value="-phoneNumber: String" style="text;align=left;verticalAlign=top;spacingLeft=4;spacingRight=4;overflow=hidden;rotatable=0;points=[[0,0.5],[1,0.5]];portConstraint=eastwest;rounded=0;shadow=0;html=0;rotation=0;" parent="EVhksR-xxD7aObuNKPsO-226" vertex="1">
          <mxGeometry y="86" width="270" height="20" as="geometry" />
        </mxCell>
        <mxCell id="EVhksR-xxD7aObuNKPsO-233" value="" style="line;html=1;strokeWidth=1;align=left;verticalAlign=middle;spacingTop=-1;spacingLeft=3;spacingRight=3;rotatable=0;labelPosition=right;points=[];portConstraint=eastwest;" parent="EVhksR-xxD7aObuNKPsO-226" vertex="1">
          <mxGeometry y="106" width="270" height="10" as="geometry" />
        </mxCell>
        <mxCell id="EVhksR-xxD7aObuNKPsO-234" value="+ &lt;&lt;create&gt;&gt; UserProfile()" style="text;align=left;verticalAlign=top;spacingLeft=4;spacingRight=4;overflow=hidden;rotatable=0;points=[[0,0.5],[1,0.5]];portConstraint=eastwest;rotation=0;" parent="EVhksR-xxD7aObuNKPsO-226" vertex="1">
          <mxGeometry y="116" width="270" height="20" as="geometry" />
        </mxCell>
        <mxCell id="EVhksR-xxD7aObuNKPsO-235" value="+getUserName(): String" style="text;align=left;verticalAlign=top;spacingLeft=4;spacingRight=4;overflow=hidden;rotatable=0;points=[[0,0.5],[1,0.5]];portConstraint=eastwest;rotation=0;" parent="EVhksR-xxD7aObuNKPsO-226" vertex="1">
          <mxGeometry y="136" width="270" height="20" as="geometry" />
        </mxCell>
        <mxCell id="EVhksR-xxD7aObuNKPsO-236" value="+setUserName(userName: String)" style="text;align=left;verticalAlign=top;spacingLeft=4;spacingRight=4;overflow=hidden;rotatable=0;points=[[0,0.5],[1,0.5]];portConstraint=eastwest;rotation=0;" parent="EVhksR-xxD7aObuNKPsO-226" vertex="1">
          <mxGeometry y="156" width="270" height="20" as="geometry" />
        </mxCell>
        <mxCell id="EVhksR-xxD7aObuNKPsO-237" value="+getProfilePicture(): Image" style="text;align=left;verticalAlign=top;spacingLeft=4;spacingRight=4;overflow=hidden;rotatable=0;points=[[0,0.5],[1,0.5]];portConstraint=eastwest;rotation=0;" parent="EVhksR-xxD7aObuNKPsO-226" vertex="1">
          <mxGeometry y="176" width="270" height="20" as="geometry" />
        </mxCell>
        <mxCell id="EVhksR-xxD7aObuNKPsO-238" value="+setProfilePicture(profilePicture: Image)" style="text;align=left;verticalAlign=top;spacingLeft=4;spacingRight=4;overflow=hidden;rotatable=0;points=[[0,0.5],[1,0.5]];portConstraint=eastwest;rotation=0;" parent="EVhksR-xxD7aObuNKPsO-226" vertex="1">
          <mxGeometry y="196" width="270" height="20" as="geometry" />
        </mxCell>
        <mxCell id="EVhksR-xxD7aObuNKPsO-239" value="+getEmail(): String" style="text;align=left;verticalAlign=top;spacingLeft=4;spacingRight=4;overflow=hidden;rotatable=0;points=[[0,0.5],[1,0.5]];portConstraint=eastwest;rotation=0;" parent="EVhksR-xxD7aObuNKPsO-226" vertex="1">
          <mxGeometry y="216" width="270" height="20" as="geometry" />
        </mxCell>
        <mxCell id="EVhksR-xxD7aObuNKPsO-240" value="+setEmail(email: String)" style="text;align=left;verticalAlign=top;spacingLeft=4;spacingRight=4;overflow=hidden;rotatable=0;points=[[0,0.5],[1,0.5]];portConstraint=eastwest;rotation=0;" parent="EVhksR-xxD7aObuNKPsO-226" vertex="1">
          <mxGeometry y="236" width="270" height="20" as="geometry" />
        </mxCell>
        <mxCell id="EVhksR-xxD7aObuNKPsO-241" value="+getPhoneNumber(): String" style="text;align=left;verticalAlign=top;spacingLeft=4;spacingRight=4;overflow=hidden;rotatable=0;points=[[0,0.5],[1,0.5]];portConstraint=eastwest;rotation=0;" parent="EVhksR-xxD7aObuNKPsO-226" vertex="1">
          <mxGeometry y="256" width="270" height="20" as="geometry" />
        </mxCell>
        <mxCell id="EVhksR-xxD7aObuNKPsO-242" value="+setPhoneNumber(phoneNumber: String)" style="text;align=left;verticalAlign=top;spacingLeft=4;spacingRight=4;overflow=hidden;rotatable=0;points=[[0,0.5],[1,0.5]];portConstraint=eastwest;rotation=0;" parent="EVhksR-xxD7aObuNKPsO-226" vertex="1">
          <mxGeometry y="276" width="270" height="20" as="geometry" />
        </mxCell>
        <mxCell id="EVhksR-xxD7aObuNKPsO-253" value="Extends" style="endArrow=block;endSize=16;endFill=0;html=1;rounded=0;exitX=0.5;exitY=0;exitDx=0;exitDy=0;entryX=0.5;entryY=1;entryDx=0;entryDy=0;" parent="WIyWlLk6GJQsqaUBKTNV-1" source="EVhksR-xxD7aObuNKPsO-16" target="EVhksR-xxD7aObuNKPsO-160" edge="1">
          <mxGeometry width="160" relative="1" as="geometry">
            <mxPoint x="90" y="250" as="sourcePoint" />
            <mxPoint x="250" y="250" as="targetPoint" />
          </mxGeometry>
        </mxCell>
        <mxCell id="EVhksR-xxD7aObuNKPsO-254" value="Extends" style="endArrow=block;endSize=16;endFill=0;html=1;rounded=0;exitX=0.5;exitY=0;exitDx=0;exitDy=0;entryX=0.533;entryY=1.19;entryDx=0;entryDy=0;entryPerimeter=0;" parent="WIyWlLk6GJQsqaUBKTNV-1" source="EVhksR-xxD7aObuNKPsO-76" target="EVhksR-xxD7aObuNKPsO-169" edge="1">
          <mxGeometry width="160" relative="1" as="geometry">
            <mxPoint x="1150.2" y="424.6" as="sourcePoint" />
            <mxPoint x="500" y="119.99999999999996" as="targetPoint" />
          </mxGeometry>
        </mxCell>
        <mxCell id="EVhksR-xxD7aObuNKPsO-256" value="Extends" style="endArrow=block;endSize=16;endFill=0;html=1;rounded=0;exitX=0.5;exitY=0;exitDx=0;exitDy=0;entryX=0.522;entryY=1.21;entryDx=0;entryDy=0;entryPerimeter=0;" parent="WIyWlLk6GJQsqaUBKTNV-1" source="EVhksR-xxD7aObuNKPsO-36" target="EVhksR-xxD7aObuNKPsO-169" edge="1">
          <mxGeometry width="160" relative="1" as="geometry">
            <mxPoint x="405" y="260" as="sourcePoint" />
            <mxPoint x="470" y="110" as="targetPoint" />
          </mxGeometry>
        </mxCell>
        <mxCell id="EVhksR-xxD7aObuNKPsO-257" value="Extends" style="endArrow=block;endSize=16;endFill=0;html=1;rounded=0;exitX=0.5;exitY=0;exitDx=0;exitDy=0;entryX=0.525;entryY=1.16;entryDx=0;entryDy=0;entryPerimeter=0;" parent="WIyWlLk6GJQsqaUBKTNV-1" source="zkfFHV4jXpPFQw0GAbJ--0" target="EVhksR-xxD7aObuNKPsO-169" edge="1">
          <mxGeometry width="160" relative="1" as="geometry">
            <mxPoint x="823.63" y="346.4" as="sourcePoint" />
            <mxPoint x="450" y="140.00000000000003" as="targetPoint" />
          </mxGeometry>
        </mxCell>
        <mxCell id="EVhksR-xxD7aObuNKPsO-258" value="Extends" style="endArrow=block;endSize=16;endFill=0;html=1;rounded=0;exitX=0.5;exitY=0;exitDx=0;exitDy=0;entryX=0.489;entryY=1.23;entryDx=0;entryDy=0;entryPerimeter=0;" parent="WIyWlLk6GJQsqaUBKTNV-1" source="EVhksR-xxD7aObuNKPsO-96" target="EVhksR-xxD7aObuNKPsO-169" edge="1">
          <mxGeometry width="160" relative="1" as="geometry">
            <mxPoint x="1350" y="342.6" as="sourcePoint" />
            <mxPoint x="552.75" y="100.00000000000009" as="targetPoint" />
          </mxGeometry>
        </mxCell>
        <mxCell id="EVhksR-xxD7aObuNKPsO-259" value="Extends" style="endArrow=block;endSize=16;endFill=0;html=1;rounded=0;exitX=0.5;exitY=0;exitDx=0;exitDy=0;entryX=0.54;entryY=1.15;entryDx=0;entryDy=0;entryPerimeter=0;" parent="WIyWlLk6GJQsqaUBKTNV-1" source="EVhksR-xxD7aObuNKPsO-206" target="EVhksR-xxD7aObuNKPsO-169" edge="1">
          <mxGeometry width="160" relative="1" as="geometry">
            <mxPoint x="185" y="340" as="sourcePoint" />
            <mxPoint x="495" y="100" as="targetPoint" />
          </mxGeometry>
        </mxCell>
        <mxCell id="EVhksR-xxD7aObuNKPsO-260" value="" style="endArrow=none;html=1;edgeStyle=orthogonalEdgeStyle;rounded=0;entryX=0;entryY=0.5;entryDx=0;entryDy=0;exitX=1;exitY=0.5;exitDx=0;exitDy=0;" parent="WIyWlLk6GJQsqaUBKTNV-1" source="EVhksR-xxD7aObuNKPsO-215" target="EVhksR-xxD7aObuNKPsO-201" edge="1">
          <mxGeometry relative="1" as="geometry">
            <mxPoint x="1830.4000244140625" y="520" as="sourcePoint" />
            <mxPoint x="618" y="710" as="targetPoint" />
            <Array as="points">
              <mxPoint x="1938" y="496" />
            </Array>
          </mxGeometry>
        </mxCell>
        <mxCell id="7Pmp2TDPIbplRNiimCEF-7" value="&lt;&lt;Interface&gt;&gt;&#xa;ReadCallback" style="swimlane;fontStyle=0;align=center;verticalAlign=top;childLayout=stackLayout;horizontal=1;startSize=40;horizontalStack=0;resizeParent=1;resizeLast=0;collapsible=1;marginBottom=0;rounded=0;shadow=0;strokeWidth=1;" vertex="1" parent="WIyWlLk6GJQsqaUBKTNV-1">
          <mxGeometry x="1180" y="-10" width="270" height="112" as="geometry">
            <mxRectangle x="230" y="140" width="160" height="26" as="alternateBounds" />
          </mxGeometry>
        </mxCell>
        <mxCell id="7Pmp2TDPIbplRNiimCEF-8" value="&lt;empty&gt;" style="text;align=left;verticalAlign=top;spacingLeft=4;spacingRight=4;overflow=hidden;rotatable=0;points=[[0,0.5],[1,0.5]];portConstraint=eastwest;rounded=0;shadow=0;html=0;" vertex="1" parent="7Pmp2TDPIbplRNiimCEF-7">
          <mxGeometry y="40" width="270" height="20" as="geometry" />
        </mxCell>
        <mxCell id="7Pmp2TDPIbplRNiimCEF-9" value="" style="line;html=1;strokeWidth=1;align=left;verticalAlign=middle;spacingTop=-1;spacingLeft=3;spacingRight=3;rotatable=0;labelPosition=right;points=[];portConstraint=eastwest;" vertex="1" parent="7Pmp2TDPIbplRNiimCEF-7">
          <mxGeometry y="60" width="270" height="10" as="geometry" />
        </mxCell>
        <mxCell id="7Pmp2TDPIbplRNiimCEF-10" value="+onReadSuccess()" style="text;align=left;verticalAlign=top;spacingLeft=4;spacingRight=4;overflow=hidden;rotatable=0;points=[[0,0.5],[1,0.5]];portConstraint=eastwest;rotation=0;" vertex="1" parent="7Pmp2TDPIbplRNiimCEF-7">
          <mxGeometry y="70" width="270" height="20" as="geometry" />
        </mxCell>
        <mxCell id="7Pmp2TDPIbplRNiimCEF-11" value="+onReadFailure(Exception e)" style="text;align=left;verticalAlign=top;spacingLeft=4;spacingRight=4;overflow=hidden;rotatable=0;points=[[0,0.5],[1,0.5]];portConstraint=eastwest;rotation=0;" vertex="1" parent="7Pmp2TDPIbplRNiimCEF-7">
          <mxGeometry y="90" width="270" height="20" as="geometry" />
        </mxCell>
        <mxCell id="7Pmp2TDPIbplRNiimCEF-12" value="&lt;&lt;Interface&gt;&gt;&#xa;ReadMultipleCallback" style="swimlane;fontStyle=0;align=center;verticalAlign=top;childLayout=stackLayout;horizontal=1;startSize=40;horizontalStack=0;resizeParent=1;resizeLast=0;collapsible=1;marginBottom=0;rounded=0;shadow=0;strokeWidth=1;" vertex="1" parent="WIyWlLk6GJQsqaUBKTNV-1">
          <mxGeometry x="1470" y="-10" width="270" height="112" as="geometry">
            <mxRectangle x="230" y="140" width="160" height="26" as="alternateBounds" />
          </mxGeometry>
        </mxCell>
        <mxCell id="7Pmp2TDPIbplRNiimCEF-13" value="&lt;empty&gt;" style="text;align=left;verticalAlign=top;spacingLeft=4;spacingRight=4;overflow=hidden;rotatable=0;points=[[0,0.5],[1,0.5]];portConstraint=eastwest;rounded=0;shadow=0;html=0;" vertex="1" parent="7Pmp2TDPIbplRNiimCEF-12">
          <mxGeometry y="40" width="270" height="20" as="geometry" />
        </mxCell>
        <mxCell id="7Pmp2TDPIbplRNiimCEF-14" value="" style="line;html=1;strokeWidth=1;align=left;verticalAlign=middle;spacingTop=-1;spacingLeft=3;spacingRight=3;rotatable=0;labelPosition=right;points=[];portConstraint=eastwest;" vertex="1" parent="7Pmp2TDPIbplRNiimCEF-12">
          <mxGeometry y="60" width="270" height="10" as="geometry" />
        </mxCell>
        <mxCell id="7Pmp2TDPIbplRNiimCEF-15" value="+onReadMultipleSuccess()" style="text;align=left;verticalAlign=top;spacingLeft=4;spacingRight=4;overflow=hidden;rotatable=0;points=[[0,0.5],[1,0.5]];portConstraint=eastwest;rotation=0;" vertex="1" parent="7Pmp2TDPIbplRNiimCEF-12">
          <mxGeometry y="70" width="270" height="20" as="geometry" />
        </mxCell>
        <mxCell id="7Pmp2TDPIbplRNiimCEF-16" value="+onReadMultipleFailure(Exception e)" style="text;align=left;verticalAlign=top;spacingLeft=4;spacingRight=4;overflow=hidden;rotatable=0;points=[[0,0.5],[1,0.5]];portConstraint=eastwest;rotation=0;" vertex="1" parent="7Pmp2TDPIbplRNiimCEF-12">
          <mxGeometry y="90" width="270" height="20" as="geometry" />
        </mxCell>
        <mxCell id="7Pmp2TDPIbplRNiimCEF-17" value="&lt;&lt;Interface&gt;&gt;&#xa;CreateMultipleCallback" style="swimlane;fontStyle=0;align=center;verticalAlign=top;childLayout=stackLayout;horizontal=1;startSize=40;horizontalStack=0;resizeParent=1;resizeLast=0;collapsible=1;marginBottom=0;rounded=0;shadow=0;strokeWidth=1;" vertex="1" parent="WIyWlLk6GJQsqaUBKTNV-1">
          <mxGeometry x="1760" y="-10" width="270" height="112" as="geometry">
            <mxRectangle x="230" y="140" width="160" height="26" as="alternateBounds" />
          </mxGeometry>
        </mxCell>
        <mxCell id="7Pmp2TDPIbplRNiimCEF-18" value="&lt;empty&gt;" style="text;align=left;verticalAlign=top;spacingLeft=4;spacingRight=4;overflow=hidden;rotatable=0;points=[[0,0.5],[1,0.5]];portConstraint=eastwest;rounded=0;shadow=0;html=0;" vertex="1" parent="7Pmp2TDPIbplRNiimCEF-17">
          <mxGeometry y="40" width="270" height="20" as="geometry" />
        </mxCell>
        <mxCell id="7Pmp2TDPIbplRNiimCEF-19" value="" style="line;html=1;strokeWidth=1;align=left;verticalAlign=middle;spacingTop=-1;spacingLeft=3;spacingRight=3;rotatable=0;labelPosition=right;points=[];portConstraint=eastwest;" vertex="1" parent="7Pmp2TDPIbplRNiimCEF-17">
          <mxGeometry y="60" width="270" height="10" as="geometry" />
        </mxCell>
        <mxCell id="7Pmp2TDPIbplRNiimCEF-20" value="+onCreateSuccess()" style="text;align=left;verticalAlign=top;spacingLeft=4;spacingRight=4;overflow=hidden;rotatable=0;points=[[0,0.5],[1,0.5]];portConstraint=eastwest;rotation=0;" vertex="1" parent="7Pmp2TDPIbplRNiimCEF-17">
          <mxGeometry y="70" width="270" height="20" as="geometry" />
        </mxCell>
        <mxCell id="7Pmp2TDPIbplRNiimCEF-21" value="+onCreateFailure(Exception e)" style="text;align=left;verticalAlign=top;spacingLeft=4;spacingRight=4;overflow=hidden;rotatable=0;points=[[0,0.5],[1,0.5]];portConstraint=eastwest;rotation=0;" vertex="1" parent="7Pmp2TDPIbplRNiimCEF-17">
          <mxGeometry y="90" width="270" height="20" as="geometry" />
        </mxCell>
        <mxCell id="7Pmp2TDPIbplRNiimCEF-22" value="&lt;&lt;Interface&gt;&gt;&#xa;DeleteCallback" style="swimlane;fontStyle=0;align=center;verticalAlign=top;childLayout=stackLayout;horizontal=1;startSize=40;horizontalStack=0;resizeParent=1;resizeLast=0;collapsible=1;marginBottom=0;rounded=0;shadow=0;strokeWidth=1;" vertex="1" parent="WIyWlLk6GJQsqaUBKTNV-1">
          <mxGeometry x="2050" y="-10" width="270" height="112" as="geometry">
            <mxRectangle x="230" y="140" width="160" height="26" as="alternateBounds" />
          </mxGeometry>
        </mxCell>
        <mxCell id="7Pmp2TDPIbplRNiimCEF-23" value="&lt;empty&gt;" style="text;align=left;verticalAlign=top;spacingLeft=4;spacingRight=4;overflow=hidden;rotatable=0;points=[[0,0.5],[1,0.5]];portConstraint=eastwest;rounded=0;shadow=0;html=0;" vertex="1" parent="7Pmp2TDPIbplRNiimCEF-22">
          <mxGeometry y="40" width="270" height="20" as="geometry" />
        </mxCell>
        <mxCell id="7Pmp2TDPIbplRNiimCEF-24" value="" style="line;html=1;strokeWidth=1;align=left;verticalAlign=middle;spacingTop=-1;spacingLeft=3;spacingRight=3;rotatable=0;labelPosition=right;points=[];portConstraint=eastwest;" vertex="1" parent="7Pmp2TDPIbplRNiimCEF-22">
          <mxGeometry y="60" width="270" height="10" as="geometry" />
        </mxCell>
        <mxCell id="7Pmp2TDPIbplRNiimCEF-25" value="+onDeleteSuccess()" style="text;align=left;verticalAlign=top;spacingLeft=4;spacingRight=4;overflow=hidden;rotatable=0;points=[[0,0.5],[1,0.5]];portConstraint=eastwest;rotation=0;" vertex="1" parent="7Pmp2TDPIbplRNiimCEF-22">
          <mxGeometry y="70" width="270" height="20" as="geometry" />
        </mxCell>
        <mxCell id="7Pmp2TDPIbplRNiimCEF-26" value="+onDeleteFailure(Exception e)" style="text;align=left;verticalAlign=top;spacingLeft=4;spacingRight=4;overflow=hidden;rotatable=0;points=[[0,0.5],[1,0.5]];portConstraint=eastwest;rotation=0;" vertex="1" parent="7Pmp2TDPIbplRNiimCEF-22">
          <mxGeometry y="90" width="270" height="20" as="geometry" />
        </mxCell>
      </root>
    </mxGraphModel>
  </diagram>
</mxfile>
